<svg width="19" height="15" viewBox="0 0 19 15" fill="none" xmlns="http://www.w3.org/2000/svg">
<path d="M1.5 9.00001C1.5 5 2.99999 2.00001 6.5 2.00001M17 9C17 5 15.5 2 12 2M7.5 8V0.5H11V8M1.5 10.5H17M1.5 12C7.55353 14.5805 10.9466 14.5466 17 12" stroke="#1753d8" stroke-width="1.5"/>
<path d="M17 10.5H18V11.5L17 12M1.5 10.5H0.5V11.5L1.5 12" stroke="#1753d8" stroke-width="1.52"/>
<path d="M1.55154 11.9054C1.55154 11.9342 1.55709 11.9689 1.55086 11.9969C1.54807 12.0095 1.5301 12.0027 1.52127 12.0052C1.50963 12.0085 1.51614 12.0263 1.5137 12.0348C1.50793 12.055 1.48321 12.061 1.47655 12.0843C1.47177 12.101 1.46131 12.1198 1.45247 12.1352C1.43036 12.1739 1.40754 12.2254 1.38092 12.255C1.35828 12.2801 1.36746 12.3504 1.34101 12.3637" stroke="#1753d8" stroke-width="0.85" stroke-linecap="round"/>
<path d="M16.9824 11.9178C16.9824 11.9824 17.0266 12.0374 17.0636 12.085C17.0863 12.1143 17.0924 12.2121 17.1434 12.2151C17.2503 12.2213 17.066 12.277 17.1619 12.277C17.2223 12.277 17.1467 12.2996 17.1585 12.3114C17.1695 12.3224 17.2267 12.3318 17.1681 12.3513" stroke="#1753d8" stroke-width="0.85" stroke-linecap="round"/>
</svg>
