<?xml version="1.0" encoding="UTF-8" standalone="no"?>
<svg
   preserveAspectRatio="xMidYMid"
   version="1.0"
   viewBox="0 0 23.354376 6.4402208"
   zoomAndPan="magnify"
   fill="#000000"
   data-color-origin="#000000"
   data-color-type="fill"
   id="svg12"
   width="23.354376"
   height="6.4402208"
   xmlns:inkscape="http://www.inkscape.org/namespaces/inkscape"
   xmlns:sodipodi="http://sodipodi.sourceforge.net/DTD/sodipodi-0.dtd"
   xmlns="http://www.w3.org/2000/svg"
   xmlns:svg="http://www.w3.org/2000/svg">
  <sodipodi:namedview
     id="namedview1"
     pagecolor="#ffffff"
     bordercolor="#000000"
     borderopacity="0.25"
     inkscape:showpageshadow="2"
     inkscape:pageopacity="0.0"
     inkscape:pagecheckerboard="0"
     inkscape:deskcolor="#2f61e6" />
  <defs
     id="defs3">
    <clipPath
       id="63690aac-7e75-4cc2-ba54-a7c9aeb47949a">
      <path
         d="m 16,10 h 3 v 7 h -3 z m 0,0"
         clip-rule="nonzero"
         id="path1" />
    </clipPath>
    <clipPath
       id="63690aac-7e75-4cc2-ba54-a7c9aeb47949b">
      <path
         d="m 13.488281,13.628906 3.941407,-3.941406 3.941406,3.941406 -3.941406,3.941406 z m 0,0"
         clip-rule="nonzero"
         id="path2" />
    </clipPath>
    <clipPath
       id="63690aac-7e75-4cc2-ba54-a7c9aeb47949c">
      <path
         d="m 13.488281,13.628906 3.941407,-3.941406 3.941406,3.941406 -3.941406,3.941406 z m 0,0"
         clip-rule="nonzero"
         id="path3" />
    </clipPath>
  </defs>
  <path
     fill="#2f61e6"
     fill-opacity="1"
     d="m 2.28125,6.440221 c -0.429687,0 -0.820313,-0.09375 -1.171875,-0.28125 C 0.765625,5.971471 0.492187,5.717565 0.296875,5.393346 0.097656,5.061315 0,4.686315 0,4.268346 0,3.862096 0.097656,3.498815 0.296875,3.174596 c 0.195312,-0.332031 0.46875,-0.59375 0.8125,-0.78125 0.351562,-0.1875 0.742188,-0.28125 1.171875,-0.28125 0.4375,0 0.828125,0.09375 1.171875,0.28125 0.34375,0.1875 0.613281,0.449219 0.8125,0.78125 0.207031,0.324219 0.3125,0.6875 0.3125,1.09375 0,0.417969 -0.105469,0.792969 -0.3125,1.125 -0.199219,0.324219 -0.46875,0.578125 -0.8125,0.765625 -0.34375,0.1875 -0.734375,0.28125 -1.171875,0.28125 z m 0,-0.828125 c 0.25,0 0.472656,-0.054688 0.671875,-0.171875 C 3.148437,5.32694 3.304687,5.17069 3.421875,4.971471 3.535156,4.76444 3.59375,4.530065 3.59375,4.268346 3.59375,4.010534 3.535156,3.780065 3.421875,3.580846 3.304687,3.385534 3.148437,3.229284 2.953125,3.112096 2.753906,2.998815 2.53125,2.940221 2.28125,2.940221 c -0.242187,0 -0.464844,0.058594 -0.671875,0.171875 -0.199219,0.117188 -0.355469,0.273438 -0.46875,0.46875 -0.105469,0.199219 -0.15625,0.429688 -0.15625,0.6875 0,0.261719 0.050781,0.496094 0.15625,0.703125 0.113281,0.199219 0.269531,0.355469 0.46875,0.46875 0.207031,0.117187 0.429688,0.171875 0.671875,0.171875 z m 0,0"
     class=" bl-fill-0"
     data-color-origin="#2f61e6"
     data-color-type="fill"
     id="path4" />
  <path
     fill="#2f61e6"
     fill-opacity="1"
     d="m 8.4455,3.143346 v 3.21875 H 7.554875 v -0.375 c -0.125,0.136719 -0.277344,0.242188 -0.453125,0.3125 -0.167969,0.070312 -0.351563,0.109375 -0.546875,0.109375 -0.417969,0 -0.75,-0.1171875 -1,-0.359375 -0.25,-0.25 -0.375,-0.609375 -0.375,-1.078125 V 3.143346 h 0.9375 v 1.6875 c 0,0.511719 0.21875,0.765625 0.65625,0.765625 0.21875,0 0.394531,-0.066406 0.53125,-0.203125 C 7.437687,5.248815 7.508,5.030065 7.508,4.737096 v -1.59375 z m 0,0"
     class=" bl-fill-0"
     data-color-origin="#2f61e6"
     data-color-type="fill"
     id="path5" />
  <path
     fill="#2f61e6"
     fill-opacity="1"
     d="m 11.343625,6.205846 c -0.09375,0.074219 -0.210938,0.125 -0.34375,0.15625 -0.125,0.03125 -0.261719,0.046875 -0.40625,0.046875 -0.386719,0 -0.683594,-0.09375 -0.890625,-0.28125 C 9.492063,5.932408 9.3905,5.63944 9.3905,5.252721 v -1.3125 h -0.5 v -0.71875 h 0.5 v -0.78125 h 0.921875 v 0.78125 h 0.8125 v 0.71875 h -0.8125 v 1.3125 c 0,0.136719 0.03516,0.242187 0.109375,0.3125 0.07031,0.074219 0.171875,0.109375 0.296875,0.109375 0.144531,0 0.269531,-0.039062 0.375,-0.125 z m 0,0"
     class=" bl-fill-0"
     data-color-origin="#2f61e6"
     data-color-type="fill"
     id="path6" />
  <path
     fill="#2f61e6"
     fill-opacity="1"
     d="M 11.849125,1.940221 H 12.771 v 4.421875 h -0.921875 z m 0,0"
     class=" bl-fill-0"
     data-color-origin="#2f61e6"
     data-color-type="fill"
     id="path7" />
  <path
     fill="#2f61e6"
     fill-opacity="1"
     d="m 18.01225,6.408971 c -0.273437,0 -0.539063,-0.03125 -0.796875,-0.09375 -0.25,-0.070313 -0.449219,-0.15625 -0.59375,-0.25 l 0.3125,-0.671875 c 0.132812,0.09375 0.300781,0.171875 0.5,0.234375 0.207031,0.054687 0.410156,0.078125 0.609375,0.078125 0.394531,0 0.59375,-0.097656 0.59375,-0.296875 0,-0.09375 -0.05859,-0.15625 -0.171875,-0.1875 C 18.359906,5.182408 18.19975,5.143346 17.981,5.112096 17.719281,5.073034 17.500531,5.026158 17.32475,4.971471 17.156781,4.92069 17.01225,4.830846 16.88725,4.705846 c -0.125,-0.132812 -0.1875,-0.320312 -0.1875,-0.5625 0,-0.207031 0.05469,-0.390625 0.171875,-0.546875 0.113281,-0.15625 0.28125,-0.273437 0.5,-0.359375 0.226562,-0.09375 0.5,-0.140625 0.8125,-0.140625 0.21875,0 0.441406,0.027344 0.671875,0.078125 0.226563,0.054688 0.414063,0.121094 0.5625,0.203125 L 19.106,4.049596 c -0.28125,-0.15625 -0.589844,-0.234375 -0.921875,-0.234375 -0.199219,0 -0.351562,0.027344 -0.453125,0.078125 -0.09375,0.054688 -0.140625,0.125 -0.140625,0.21875 0,0.09375 0.05078,0.164062 0.15625,0.203125 0.101562,0.042969 0.273438,0.078125 0.515625,0.109375 0.257813,0.042969 0.472656,0.089844 0.640625,0.140625 0.164062,0.054687 0.3125,0.148437 0.4375,0.28125 0.125,0.125 0.1875,0.308594 0.1875,0.546875 0,0.199219 -0.0625,0.375 -0.1875,0.53125 -0.117188,0.15625 -0.289062,0.277344 -0.515625,0.359375 -0.230469,0.082031 -0.5,0.125 -0.8125,0.125 z m 0,0"
     class=" bl-fill-0"
     data-color-origin="#2f61e6"
     data-color-type="fill"
     id="path8" />
  <path
     fill="#2f61e6"
     fill-opacity="1"
     d="m 22.010625,3.096471 c 0.40625,0 0.726562,0.121094 0.96875,0.359375 0.25,0.242188 0.375,0.59375 0.375,1.0625 v 1.84375 h -0.9375 v -1.6875 c 0,-0.257812 -0.05859,-0.453125 -0.171875,-0.578125 -0.105469,-0.125 -0.265625,-0.1875 -0.484375,-0.1875 -0.230469,0 -0.417969,0.074219 -0.5625,0.21875 C 21.061406,4.276158 20.995,4.487096 20.995,4.768346 v 1.59375 H 20.073125 V 1.940221 H 20.995 v 1.546875 c 0.125,-0.125 0.273437,-0.21875 0.453125,-0.28125 0.175781,-0.070312 0.363281,-0.109375 0.5625,-0.109375 z m 0,0"
     class=" bl-fill-0"
     data-color-origin="#2f61e6"
     data-color-type="fill"
     id="path9" />
  <g
     clip-path="url(#63690aac-7e75-4cc2-ba54-a7c9aeb47949a)"
     transform="translate(-2.568375,-10.003904)"
     id="g12">
    <g
       clip-path="url(#63690aac-7e75-4cc2-ba54-a7c9aeb47949b)"
       id="g11">
      <g
         clip-path="url(#63690aac-7e75-4cc2-ba54-a7c9aeb47949c)"
         id="g10">
        <path
           fill="#2f61e6"
           fill-opacity="1"
           fill-rule="nonzero"
           d="m 17.976562,10.664062 c 0,0.179688 -0.07422,0.640626 -0.179687,1.042969 -0.128906,0.484375 -0.28125,0.769531 -0.40625,0.769531 -0.02734,0 -0.05859,-0.01562 -0.08984,-0.04297 0.0078,-0.0039 0.01563,-0.0039 0.02344,-0.0078 0.02734,-0.0078 0.05469,-0.01172 0.08594,-0.01172 0.01953,0 0.03906,0 0.05469,0.0039 0.07422,-0.07031 0.171875,-0.242188 0.265625,-0.5625 l -0.183594,-0.132813 c -0.08203,-0.0625 -0.195313,-0.0625 -0.277344,0 l -0.214843,0.15625 -0.01563,0.01172 c -0.01953,-0.05469 -0.03516,-0.117187 -0.05469,-0.183594 -0.105469,-0.402343 -0.179687,-0.863281 -0.179687,-1.042969 0,-0.15625 0.0625,-0.304687 0.171874,-0.414062 0.109376,-0.109375 0.257813,-0.171875 0.414063,-0.171875 0.324219,0 0.585937,0.261719 0.585937,0.585937 z m -0.585937,-0.660156 c -0.175781,0 -0.339844,0.07031 -0.464844,0.191406 -0.125,0.125 -0.195312,0.292969 -0.195312,0.46875 0,0.183594 0.07422,0.65625 0.183593,1.0625 0.01953,0.07813 0.04297,0.144532 0.0625,0.210938 l -0.01562,0.01172 -0.792969,0.582031 c -0.05859,0.04687 -0.09766,0.117188 -0.09766,0.191406 v 3.363282 c 0,0.128906 0.105469,0.234374 0.238282,0.234374 h 2.203125 c 0.128906,0 0.234375,-0.105468 0.234375,-0.234374 v -3.363282 c 0,-0.07422 -0.03516,-0.144531 -0.09375,-0.191406 l -0.824219,-0.601562 c -0.07813,0.253906 -0.164063,0.433593 -0.25,0.535156 0.08203,0.05469 0.132813,0.148437 0.132813,0.25 0,0.167968 -0.132813,0.304687 -0.300782,0.304687 -0.167968,0 -0.304687,-0.136719 -0.304687,-0.304687 0,-0.09375 0.04297,-0.175782 0.113281,-0.234375 0.0039,-0.0039 0.01172,-0.0078 0.01563,-0.01172 0.05078,0.05469 0.101563,0.08203 0.15625,0.08203 0.05078,0 0.09766,-0.02344 0.148437,-0.07422 0.113282,-0.113281 0.222657,-0.363281 0.328126,-0.75 0.109374,-0.40625 0.183593,-0.878906 0.183593,-1.0625 0,-0.363281 -0.296875,-0.660156 -0.660156,-0.660156"
           class=" bl-fill-0"
           data-color-origin="#2f61e6"
           data-color-type="fill"
           id="path10" />
      </g>
    </g>
  </g>
</svg>
